<svg xmlns="http://www.w3.org/2000/svg" width="29.701" height="28.468" viewBox="0 0 29.701 28.468"><defs><style>.a{fill:#42dc15;}.b{fill:#393939;}</style></defs><path class="a" d="M17.093,10.764a.619.619,0,0,0-.525-.124L.48,14.353a.619.619,0,0,0-.48.609V36a.619.619,0,0,0,.525.611l16.088,2.475a.619.619,0,0,0,.713-.611V11.249A.618.618,0,0,0,17.093,10.764Z" transform="translate(0 -10.626)"/><path class="a" d="M290.327,76.89H277.952a.619.619,0,1,1,0-1.238h11.757V54.615H277.952a.619.619,0,1,1,0-1.238h12.375a.619.619,0,0,1,.619.619V76.272A.619.619,0,0,1,290.327,76.89Z" transform="translate(-261.245 -50.897)"/><g transform="translate(16.088 2.48)"><path class="a" d="M363.286,76.889a.619.619,0,0,1-.619-.619V53.995a.619.619,0,1,1,1.238,0V76.271A.619.619,0,0,1,363.286,76.889Z" transform="translate(-357.717 -53.376)"/><path class="a" d="M290.327,374.614H277.952a.619.619,0,1,1,0-1.238h12.375a.619.619,0,0,1,0,1.238Z" transform="translate(-277.333 -354.813)"/><path class="a" d="M290.327,310.614H277.952a.619.619,0,1,1,0-1.238h12.375a.619.619,0,0,1,0,1.238Z" transform="translate(-277.333 -294.525)"/><path class="a" d="M290.327,246.614H277.952a.619.619,0,1,1,0-1.238h12.375a.619.619,0,0,1,0,1.238Z" transform="translate(-277.333 -234.238)"/><path class="a" d="M290.327,182.614H277.952a.619.619,0,1,1,0-1.238h12.375a.619.619,0,0,1,0,1.238Z" transform="translate(-277.333 -173.951)"/><path class="a" d="M290.327,118.614H277.952a.619.619,0,1,1,0-1.238h12.375a.619.619,0,0,1,0,1.238Z" transform="translate(-277.333 -113.663)"/></g><g transform="translate(2.494 7.31)"><g transform="translate(0 8.963)"><path class="b" d="M11.622,314.642v2.688a.493.493,0,0,1-.492.492H1.477a.493.493,0,0,1-.492-.492v-2.688H0v2.688a1.479,1.479,0,0,0,1.477,1.477H11.13a1.479,1.479,0,0,0,1.477-1.477v-2.688Z" transform="translate(0 -314.642)"/></g><g transform="translate(2.634 0)"><g transform="translate(0)"><path class="b" d="M135.385,9.62l-3.669-3.669.835-.835,2.244,2.244v-7h1.181v7l2.244-2.244.835.835Z" transform="translate(-131.716 -0.358)"/></g></g></g></svg>